<svg width="15" height="22" viewBox="0 0 15 22" fill="none" xmlns="http://www.w3.org/2000/svg">
<g clip-path="url(#clip0_211_613)">
<path d="M7.50007 4.10645C6.79177 4.10645 6.09937 4.31181 5.51044 4.69658C4.92151 5.08135 4.46249 5.62824 4.19143 6.26808C3.92037 6.90793 3.84945 7.612 3.98764 8.29125C4.12582 8.97051 4.4669 9.59445 4.96775 10.0842C5.4686 10.5739 6.10671 10.9074 6.80141 11.0425C7.4961 11.1776 8.21617 11.1083 8.87056 10.8432C9.52495 10.5782 10.0843 10.1294 10.4778 9.55353C10.8713 8.97769 11.0813 8.30068 11.0813 7.60811C11.0813 6.67941 10.704 5.78875 10.0324 5.13206C9.36079 4.47537 8.44988 4.10645 7.50007 4.10645ZM7.50007 9.88756C7.039 9.88756 6.58827 9.75387 6.2049 9.5034C5.82153 9.25293 5.52273 8.89693 5.34628 8.48042C5.16983 8.0639 5.12367 7.60558 5.21362 7.16341C5.30357 6.72125 5.5256 6.31509 5.85163 5.9963C6.17766 5.67752 6.59305 5.46042 7.04527 5.37247C7.49749 5.28451 7.96623 5.32965 8.39221 5.50218C8.81819 5.67471 9.18228 5.96687 9.43844 6.34172C9.6946 6.71657 9.83132 7.15728 9.83132 7.60811C9.82967 8.2116 9.58333 8.78982 9.14631 9.21597C8.7093 9.64213 8.11728 9.88145 7.50007 9.88145V9.88756Z" fill="#CECECE"/>
<path d="M7.50001 1.22168C5.55326 1.22327 3.68625 1.97804 2.30677 3.32115C0.927281 4.66425 0.147419 6.48655 0.137512 8.39001C0.137512 11.2439 1.77501 13.6333 2.97501 15.375L3.19376 15.6928C4.38769 17.3847 5.66849 19.0164 7.03126 20.5817L7.50626 21.1256L7.98126 20.5817C9.34386 19.0163 10.6247 17.3846 11.8188 15.6928L12.0375 15.3689C13.2313 13.6272 14.8688 11.2439 14.8688 8.39001C14.8589 6.48549 14.0781 4.66227 12.6973 3.319C11.3165 1.97572 9.44785 1.22166 7.50001 1.22168ZM10.9938 14.6661L10.7688 14.99C9.69376 16.5667 8.26876 18.3328 7.50001 19.2067C6.76251 18.3328 5.30626 16.5667 4.23126 14.99L4.01251 14.6661C2.90626 13.0528 1.38751 10.8467 1.38751 8.36557C1.38751 7.5807 1.54562 6.80352 1.8528 6.0784C2.15998 5.35327 2.61022 4.69441 3.17782 4.13943C3.74542 3.58444 4.41926 3.1442 5.16086 2.84385C5.90246 2.54349 6.69731 2.3889 7.50001 2.3889C8.30272 2.3889 9.09756 2.54349 9.83916 2.84385C10.5808 3.1442 11.2546 3.58444 11.8222 4.13943C12.3898 4.69441 12.84 5.35327 13.1472 6.0784C13.4544 6.80352 13.6125 7.5807 13.6125 8.36557C13.6125 10.8711 12.1 13.0772 10.9938 14.6661Z" fill="#CECECE"/>
</g>
<defs>
<clipPath id="clip0_211_613">
<rect width="15" height="22" fill="white"/>
</clipPath>
</defs>
</svg>
