<svg width="20" height="15" viewBox="0 0 20 15" fill="none" xmlns="http://www.w3.org/2000/svg">
<g clip-path="url(#clip0_211_620)">
<path d="M20 1.64077V13.3595C20 14.0246 19.4594 14.5314 18.75 14.5314H17.5V3.89605L10 8.94683L2.5 3.89605V14.5314H1.25C0.540625 14.5314 0 14.0246 0 13.3595V1.64077C0 1.30796 0.13375 1.01499 0.358125 0.807569C0.474983 0.697956 0.614156 0.61149 0.767371 0.553309C0.920586 0.495129 1.08471 0.466423 1.25 0.468897H1.66688L10 6.13316L18.3331 0.468897H18.75C19.105 0.468897 19.4175 0.594288 19.6419 0.807569C19.8662 1.01499 20 1.30796 20 1.64077Z" fill="#CECECE"/>
</g>
<defs>
<clipPath id="clip0_211_620">
<rect width="20" height="15" fill="white"/>
</clipPath>
</defs>
</svg>
