<svg width="20" height="20" viewBox="0 0 20 20" fill="none" xmlns="http://www.w3.org/2000/svg">
<g clip-path="url(#clip0_313_443)">
<path d="M17.6931 20H17.5624C2.45258 19.1308 0.307214 6.37692 0.00732409 2.48462C-0.0168399 2.18198 0.0189265 1.87756 0.112574 1.58878C0.206221 1.3 0.355908 1.03254 0.55306 0.801732C0.750211 0.570923 0.990951 0.381298 1.26149 0.243723C1.53202 0.106147 1.82703 0.0233245 2.12962 7.21224e-07H6.36652C6.67453 -0.000297559 6.97553 0.0919313 7.23054 0.264741C7.48554 0.43755 7.6828 0.682977 7.79676 0.969232L8.96556 3.84615C9.0781 4.12581 9.10603 4.43237 9.04588 4.72776C8.98573 5.02316 8.84015 5.29436 8.62723 5.50769L6.98937 7.16154C7.24521 8.61596 7.94147 9.95667 8.98394 11.0023C10.0264 12.0479 11.3648 12.7479 12.818 13.0077L14.4866 11.3538C14.7031 11.1432 14.9767 11.001 15.2735 10.9449C15.5702 10.8888 15.8769 10.9213 16.1552 11.0385L19.0542 12.2C19.336 12.3176 19.5764 12.5165 19.7449 12.7713C19.9133 13.0261 20.0021 13.3253 20 13.6308V17.6923C20 18.3043 19.7569 18.8913 19.3243 19.3241C18.8917 19.7569 18.3049 20 17.6931 20ZM2.31417 1.53846C2.11023 1.53846 1.91464 1.61951 1.77044 1.76377C1.62623 1.90802 1.54522 2.10368 1.54522 2.30769V2.36923C1.89894 6.92308 4.16733 17.6923 17.647 18.4615C17.748 18.4678 17.8493 18.454 17.945 18.421C18.0406 18.388 18.1289 18.3365 18.2046 18.2693C18.2803 18.2021 18.3421 18.1207 18.3862 18.0296C18.4304 17.9385 18.4562 17.8395 18.4621 17.7385V13.6308L15.5631 12.4692L13.3563 14.6615L12.9872 14.6154C6.29732 13.7769 5.38996 7.08462 5.38996 7.01539L5.34382 6.64616L7.52763 4.43846L6.37421 1.53846H2.31417Z" fill="#CECECE"/>
</g>
<defs>
<clipPath id="clip0_313_443">
<rect width="20" height="20" fill="white"/>
</clipPath>
</defs>
</svg>
