<svg width="20" height="20" viewBox="0 0 20 20" fill="none" xmlns="http://www.w3.org/2000/svg">
<g clip-path="url(#clip0_211_607)">
<path d="M17.2115 19.375H17.0889C2.91824 18.5601 0.906222 6.60337 0.624972 2.95433C0.60231 2.67061 0.635853 2.38521 0.72368 2.11448C0.811506 1.84375 0.95189 1.59301 1.13679 1.37662C1.32168 1.16024 1.54746 0.982467 1.80118 0.85349C2.0549 0.724513 2.33158 0.646867 2.61536 0.625001H6.58891C6.87778 0.624721 7.16007 0.711186 7.39923 0.873194C7.63838 1.0352 7.82338 1.26529 7.93026 1.53365L9.02641 4.23077C9.13196 4.49294 9.15815 4.78035 9.10174 5.05728C9.04532 5.33421 8.90879 5.58847 8.70911 5.78846L7.17305 7.33894C7.41299 8.70246 8.06597 9.95938 9.04365 10.9396C10.0213 11.9199 11.2765 12.5762 12.6394 12.8197L14.2043 11.2692C14.4073 11.0717 14.664 10.9384 14.9422 10.8858C15.2205 10.8332 15.5081 10.8638 15.7692 10.9736L18.488 12.0625C18.7523 12.1728 18.9778 12.3592 19.1357 12.5981C19.2937 12.837 19.377 13.1175 19.375 13.4038V17.2115C19.375 17.7853 19.147 18.3356 18.7413 18.7413C18.3356 19.1471 17.7853 19.375 17.2115 19.375ZM2.78843 2.06731C2.59717 2.06731 2.41374 2.14329 2.2785 2.27853C2.14326 2.41377 2.06728 2.5972 2.06728 2.78846V2.84615C2.39901 7.11539 4.52641 17.2115 17.1682 17.9327C17.263 17.9385 17.3579 17.9256 17.4477 17.8947C17.5374 17.8638 17.6202 17.8154 17.6912 17.7525C17.7622 17.6895 17.8201 17.6131 17.8615 17.5277C17.903 17.4423 17.9272 17.3496 17.9327 17.2548V13.4038L15.2139 12.3149L13.1442 14.3702L12.798 14.3269C6.52401 13.5409 5.67305 7.26683 5.67305 7.20192L5.62978 6.85577L7.67786 4.78606L6.59613 2.06731H2.78843Z" fill="#CECECE"/>
</g>
<defs>
<clipPath id="clip0_211_607">
<rect width="20" height="20" fill="white"/>
</clipPath>
</defs>
</svg>
