<svg width="79" height="62" viewBox="0 0 79 62" fill="none" xmlns="http://www.w3.org/2000/svg">
<path d="M0.84 57.1805C0.530667 57.0472 0.437333 56.8258 0.56 56.5165L4.472 47.1325C4.584 46.8712 4.77333 46.7405 5.04 46.7405H5.08C5.34133 46.7458 5.52267 46.8765 5.624 47.1325L9.56 56.5165C9.69333 56.8258 9.60267 57.0472 9.288 57.1805C8.97867 57.3032 8.76 57.2125 8.632 56.9085L7.64 54.5325H2.48L1.496 56.9085C1.37333 57.2178 1.15467 57.3085 0.84 57.1805ZM2.888 53.5245H7.216L5.04 48.3325L2.888 53.5245ZM12.0091 57.2285C11.6731 57.2285 11.5051 57.0605 11.5051 56.7245V49.9885C11.5051 49.6525 11.6731 49.4845 12.0091 49.4845C12.3451 49.4845 12.5131 49.6525 12.5131 49.9885V51.0125C12.8065 50.5165 13.2091 50.1378 13.7211 49.8765C14.2331 49.6152 14.8331 49.4845 15.5211 49.4845C15.8571 49.4845 16.0251 49.6525 16.0251 49.9885C16.0251 50.3245 15.8571 50.4925 15.5211 50.4925C14.5825 50.4925 13.8571 50.6925 13.3451 51.0925C12.8385 51.4925 12.5611 52.0498 12.5131 52.7645V56.7245C12.5131 57.0605 12.3451 57.2285 12.0091 57.2285ZM18.2255 53.7565V54.2765C18.2255 55.0072 18.3668 55.5138 18.6495 55.7965C18.9375 56.0792 19.4495 56.2205 20.1855 56.2205H21.4975C22.1322 56.2205 22.5935 56.1458 22.8815 55.9965C23.1748 55.8472 23.3535 55.5885 23.4175 55.2205C23.4548 55.0605 23.5135 54.9405 23.5935 54.8605C23.6735 54.7805 23.7935 54.7405 23.9535 54.7405C24.1188 54.7405 24.2442 54.7858 24.3295 54.8765C24.4202 54.9618 24.4522 55.0898 24.4255 55.2605C24.3402 55.9272 24.0548 56.4232 23.5695 56.7485C23.0895 57.0685 22.3988 57.2285 21.4975 57.2285H20.1855C19.1668 57.2285 18.4175 56.9885 17.9375 56.5085C17.4575 56.0285 17.2175 55.2845 17.2175 54.2765V52.4525C17.2175 51.4178 17.4575 50.6632 17.9375 50.1885C18.4175 49.7085 19.1668 49.4738 20.1855 49.4845H21.4975C22.5215 49.4845 23.2708 49.7245 23.7455 50.2045C24.2255 50.6792 24.4655 51.4285 24.4655 52.4525V53.2525C24.4655 53.5885 24.2975 53.7565 23.9615 53.7565H18.2255ZM20.1855 50.4925C19.4495 50.4818 18.9375 50.6178 18.6495 50.9005C18.3668 51.1832 18.2255 51.7005 18.2255 52.4525V52.7485H23.4575V52.4525C23.4575 51.7112 23.3162 51.1992 23.0335 50.9165C22.7508 50.6338 22.2388 50.4925 21.4975 50.4925H20.1855ZM27.806 57.2285C27.47 57.2285 27.302 57.0605 27.302 56.7245V49.9885C27.302 49.6525 27.47 49.4845 27.806 49.4845C28.142 49.4845 28.31 49.6525 28.31 49.9885V50.5805C28.838 49.8498 29.726 49.4845 30.974 49.4845H31.422C32.446 49.4845 33.1953 49.7245 33.67 50.2045C34.15 50.6792 34.39 51.4285 34.39 52.4525V56.7245C34.39 57.0605 34.222 57.2285 33.886 57.2285C33.55 57.2285 33.382 57.0605 33.382 56.7245V52.4525C33.382 51.7112 33.238 51.1992 32.95 50.9165C32.6673 50.6338 32.158 50.4925 31.422 50.4925H30.974C30.2113 50.4925 29.5927 50.6045 29.118 50.8285C28.6433 51.0525 28.374 51.4018 28.31 51.8765V56.7245C28.31 57.0605 28.142 57.2285 27.806 57.2285ZM40.0449 57.2285C39.0262 57.2285 38.2769 56.9885 37.7969 56.5085C37.3169 56.0285 37.0769 55.2792 37.0769 54.2605V52.4525C37.0769 51.4285 37.3169 50.6792 37.7969 50.2045C38.2769 49.7245 39.0262 49.4845 40.0449 49.4845H43.3169V46.5805C43.3169 46.2445 43.4849 46.0765 43.8209 46.0765C44.1569 46.0765 44.3249 46.2445 44.3249 46.5805V56.7245C44.3249 57.0605 44.1569 57.2285 43.8209 57.2285C43.4849 57.2285 43.3169 57.0605 43.3169 56.7245V56.2285C43.0822 56.5538 42.7489 56.8018 42.3169 56.9725C41.8849 57.1432 41.3302 57.2285 40.6529 57.2285H40.0449ZM40.0449 56.2205H40.6529C41.4422 56.2205 42.0822 56.1032 42.5729 55.8685C43.0689 55.6285 43.3169 55.2712 43.3169 54.7965V50.4925H40.0449C39.3089 50.4925 38.7969 50.6365 38.5089 50.9245C38.2262 51.2072 38.0849 51.7165 38.0849 52.4525V54.2605C38.0849 54.9965 38.2262 55.5085 38.5089 55.7965C38.7969 56.0792 39.3089 56.2205 40.0449 56.2205ZM49.5988 57.2285C48.7508 57.2285 48.1241 57.0258 47.7188 56.6205C47.3134 56.2152 47.1108 55.5885 47.1108 54.7405C47.1108 53.8872 47.3134 53.2578 47.7188 52.8525C48.1241 52.4472 48.7508 52.2445 49.5988 52.2445H53.1588C53.1374 51.5885 52.9801 51.1325 52.6868 50.8765C52.3988 50.6205 51.9028 50.4925 51.1988 50.4925H50.2708C49.6414 50.4925 49.1774 50.5538 48.8788 50.6765C48.5854 50.7938 48.3961 50.9992 48.3108 51.2925C48.2574 51.4525 48.1908 51.5698 48.1108 51.6445C48.0361 51.7138 47.9214 51.7485 47.7668 51.7485C47.6014 51.7485 47.4708 51.7032 47.3748 51.6125C47.2841 51.5165 47.2521 51.3885 47.2788 51.2285C47.3801 50.6205 47.6761 50.1778 48.1668 49.9005C48.6574 49.6232 49.3588 49.4845 50.2708 49.4845H51.1988C52.2228 49.4845 52.9721 49.7245 53.4468 50.2045C53.9268 50.6792 54.1667 51.4285 54.1667 52.4525V56.7245C54.1667 57.0605 53.9988 57.2285 53.6628 57.2285C53.3268 57.2285 53.1588 57.0605 53.1588 56.7245V56.0685C52.6308 56.8418 51.7428 57.2285 50.4948 57.2285H49.5988ZM49.5988 56.2205H50.4948C50.9748 56.2205 51.4014 56.1698 51.7748 56.0685C52.1534 55.9672 52.4628 55.7992 52.7028 55.5645C52.9481 55.3298 53.1001 55.0125 53.1588 54.6125V53.2525H49.5988C49.0281 53.2525 48.6388 53.3565 48.4308 53.5645C48.2228 53.7725 48.1188 54.1645 48.1188 54.7405C48.1188 55.3112 48.2228 55.7005 48.4308 55.9085C48.6388 56.1165 49.0281 56.2205 49.5988 56.2205ZM59.2734 57.2365C59.1134 57.2365 58.988 57.1938 58.8974 57.1085C58.812 57.0178 58.7694 56.8925 58.7694 56.7325V47.7485H55.4654C55.3054 47.7485 55.18 47.7058 55.0894 47.6205C55.004 47.5298 54.9614 47.4045 54.9614 47.2445C54.9614 47.0845 55.004 46.9618 55.0894 46.8765C55.18 46.7858 55.3054 46.7405 55.4654 46.7405H63.0814C63.2414 46.7405 63.364 46.7858 63.4494 46.8765C63.54 46.9618 63.5854 47.0845 63.5854 47.2445C63.5854 47.4045 63.54 47.5298 63.4494 47.6205C63.364 47.7058 63.2414 47.7485 63.0814 47.7485H59.7774V56.7325C59.7774 56.8872 59.732 57.0098 59.6414 57.1005C59.556 57.1912 59.4334 57.2365 59.2734 57.2365ZM70.1559 49.4845C70.4919 49.4845 70.6599 49.6525 70.6599 49.9885V56.7245C70.6599 57.0605 70.4919 57.2285 70.1559 57.2285C69.8199 57.2285 69.6519 57.0605 69.6519 56.7245V56.1245C69.1292 56.8605 68.2412 57.2285 66.9879 57.2285H66.5399C65.5212 57.2285 64.7719 56.9885 64.2919 56.5085C63.8119 56.0285 63.5719 55.2792 63.5719 54.2605V49.9885C63.5719 49.6525 63.7399 49.4845 64.0759 49.4845C64.4119 49.4845 64.5799 49.6525 64.5799 49.9885V54.2605C64.5799 54.9965 64.7212 55.5085 65.0039 55.7965C65.2919 56.0792 65.8039 56.2205 66.5399 56.2205H66.9879C67.7505 56.2205 68.3692 56.1085 68.8439 55.8845C69.3239 55.6552 69.5932 55.3058 69.6519 54.8365V49.9885C69.6519 49.6525 69.8199 49.4845 70.1559 49.4845ZM74.2747 57.2285C73.9388 57.2285 73.7708 57.0605 73.7708 56.7245V49.9885C73.7708 49.6525 73.9388 49.4845 74.2747 49.4845C74.6108 49.4845 74.7788 49.6525 74.7788 49.9885V51.0125C75.0721 50.5165 75.4748 50.1378 75.9868 49.8765C76.4988 49.6152 77.0988 49.4845 77.7868 49.4845C78.1228 49.4845 78.2908 49.6525 78.2908 49.9885C78.2908 50.3245 78.1228 50.4925 77.7868 50.4925C76.8481 50.4925 76.1228 50.6925 75.6108 51.0925C75.1041 51.4925 74.8268 52.0498 74.7788 52.7645V56.7245C74.7788 57.0605 74.6108 57.2285 74.2747 57.2285Z" fill="#D6D6D6"/>
<path d="M18.0002 9.60617L44.419 0.0683594V9.60618L18.0002 13.8092V9.60617Z" fill="#F3A242"/>
<path d="M18.0002 16.2108L44.419 12.0078V18.6125L18.0002 21.6146V16.2108Z" fill="#F3A242"/>
<path d="M18.0002 24.0168L44.419 21.2148V28.2198L18.0002 29.4207V24.0168Z" fill="#F3A242"/>
<path d="M18.0002 31.8219L44.419 30.6211L44.419 37.2258H18.0002V31.8219Z" fill="#F3A242"/>
<path d="M44.4193 0L60.0304 9.20654V13.8098L44.4193 9.60683V0Z" fill="#F3FBFF"/>
<path d="M44.4193 12.0078L60.0304 16.2108V22.0149L44.4193 18.6125V12.0078Z" fill="#F3FBFF"/>
<path d="M44.4193 21.2148L60.0304 24.4171V29.4207L44.4193 28.2198V21.2148Z" fill="#F3FBFF"/>
<path d="M44.4193 30.6211L60.0304 31.822V37.2258H44.4193V30.6211Z" fill="#F3FBFF"/>
</svg>
