<svg width="20" height="20" viewBox="0 0 20 20" fill="none" xmlns="http://www.w3.org/2000/svg">
<path d="M10.3626 2.88477C9.65432 2.88477 8.96192 3.09013 8.37299 3.4749C7.78405 3.85967 7.32504 4.40656 7.05398 5.0464C6.78292 5.68625 6.712 6.39032 6.85019 7.06957C6.98837 7.74883 7.32945 8.37277 7.8303 8.86249C8.33114 9.3522 8.96926 9.6857 9.66396 9.82082C10.3587 9.95593 11.0787 9.88658 11.7331 9.62155C12.3875 9.35652 12.9468 8.9077 13.3403 8.33185C13.7338 7.75601 13.9439 7.079 13.9439 6.38643C13.9439 5.45773 13.5666 4.56707 12.8949 3.91038C12.2233 3.25369 11.3124 2.88477 10.3626 2.88477V2.88477ZM10.3626 8.66588C9.90155 8.66588 9.45082 8.53219 9.06745 8.28172C8.68408 8.03125 8.38528 7.67525 8.20883 7.25874C8.03238 6.84222 7.98622 6.3839 8.07617 5.94173C8.16612 5.49957 8.38815 5.09341 8.71418 4.77462C9.04021 4.45584 9.4556 4.23874 9.90782 4.15079C10.36 4.06283 10.8288 4.10797 11.2548 4.2805C11.6807 4.45303 12.0448 4.74519 12.301 5.12004C12.5571 5.49489 12.6939 5.9356 12.6939 6.38643C12.6922 6.98992 12.4459 7.56814 12.0089 7.99429C11.5718 8.42045 10.9798 8.65977 10.3626 8.65977V8.66588Z" fill="#CECECE"/>
<path d="M10.3625 6.04952e-10C8.41575 0.00158985 6.54874 0.756364 5.16925 2.09947C3.78977 3.44257 3.00991 5.26487 3 7.16833C3 10.0222 4.6375 12.4117 5.8375 14.1533L6.05625 14.4711C7.25017 16.163 8.53098 17.7948 9.89375 19.36L10.3688 19.9039L10.8438 19.36C12.2063 17.7946 13.4871 16.1629 14.6813 14.4711L14.9 14.1472C16.0938 12.4056 17.7313 10.0222 17.7313 7.16833C17.7213 5.26381 16.9406 3.4406 15.5598 2.09732C14.1789 0.754036 12.3103 -2.4662e-05 10.3625 6.04952e-10V6.04952e-10ZM13.8563 13.4444L13.6313 13.7683C12.5563 15.345 11.1313 17.1111 10.3625 17.985C9.625 17.1111 8.16875 15.345 7.09375 13.7683L6.875 13.4444C5.76875 11.8311 4.25 9.625 4.25 7.14389C4.25 6.35902 4.4081 5.58184 4.71529 4.85672C5.02247 4.1316 5.47271 3.47273 6.04031 2.91775C6.60791 2.36276 7.28174 1.92252 8.02335 1.62217C8.76495 1.32181 9.5598 1.16722 10.3625 1.16722C11.1652 1.16722 11.96 1.32181 12.7017 1.62217C13.4433 1.92252 14.1171 2.36276 14.6847 2.91775C15.2523 3.47273 15.7025 4.1316 16.0097 4.85672C16.3169 5.58184 16.475 6.35902 16.475 7.14389C16.475 9.64944 14.9625 11.8556 13.8563 13.4444V13.4444Z" fill="#CECECE"/>
</svg>
