<svg width="20" height="20" viewBox="0 0 20 20" fill="none" xmlns="http://www.w3.org/2000/svg">
<path d="M20 4.17202V15.8908C20 16.5558 19.4594 17.0626 18.75 17.0626H17.5V6.4273L10 11.4781L2.5 6.4273V17.0626H1.25C0.540625 17.0626 0 16.5558 0 15.8908V4.17202C0 3.83921 0.13375 3.54624 0.358125 3.33882C0.474983 3.22921 0.614156 3.14274 0.767371 3.08456C0.920586 3.02638 1.08471 2.99767 1.25 3.00015H1.66688L10 8.66441L18.3331 3.00015H18.75C19.105 3.00015 19.4175 3.12554 19.6419 3.33882C19.8663 3.54624 20 3.83921 20 4.17202Z" fill="#CECECE"/>
</svg>
