<svg width="70" height="70" viewBox="0 0 70 70" fill="none" xmlns="http://www.w3.org/2000/svg">
<g clip-path="url(#clip0_317_463)">
<path d="M67.4545 44.7727C67.4545 46.7015 66.6883 48.5514 65.3244 49.9153C63.9605 51.2792 62.1107 52.0454 60.1818 52.0454H9.27273C7.34388 52.0454 5.49403 51.2792 4.13013 49.9153C2.76623 48.5514 2 46.7015 2 44.7727V39.3181C2 37.3893 2.76623 35.5394 4.13013 34.1755C5.49403 32.8116 7.34388 32.0454 9.27273 32.0454H60.1818C62.1107 32.0454 63.9605 32.8116 65.3244 34.1755C66.6883 35.5394 67.4545 37.3893 67.4545 39.3181V44.7727Z" fill="#DD2E44"/>
<path d="M36.5455 19.3182L34.7655 17.5H14.9927C9.27273 17.5 7.45454 21.1364 7.45454 21.1364L2 31.9709V41.1364H36.5455V19.3182Z" fill="#FFCC4D"/>
<path d="M18.3637 32.0456H5.63647L9.27284 24.7728C9.27284 24.7728 11.091 21.1365 14.7274 21.1365H18.3637V32.0456Z" fill="#55ACEE"/>
<path d="M18.3635 59.3182C22.3802 59.3182 25.6363 56.062 25.6363 52.0454C25.6363 48.0288 22.3802 44.7727 18.3635 44.7727C14.3469 44.7727 11.0908 48.0288 11.0908 52.0454C11.0908 56.062 14.3469 59.3182 18.3635 59.3182Z" fill="#292F33"/>
<path d="M18.3637 55.6819C20.372 55.6819 22 54.0539 22 52.0455C22 50.0372 20.372 48.4092 18.3637 48.4092C16.3554 48.4092 14.7273 50.0372 14.7273 52.0455C14.7273 54.0539 16.3554 55.6819 18.3637 55.6819Z" fill="#CCD6DD"/>
<path d="M51.0908 59.3182C55.1075 59.3182 58.3636 56.062 58.3636 52.0454C58.3636 48.0288 55.1075 44.7727 51.0908 44.7727C47.0742 44.7727 43.8181 48.0288 43.8181 52.0454C43.8181 56.062 47.0742 59.3182 51.0908 59.3182Z" fill="#292F33"/>
<path d="M51.091 55.6819C53.0993 55.6819 54.7273 54.0539 54.7273 52.0455C54.7273 50.0372 53.0993 48.4092 51.091 48.4092C49.0826 48.4092 47.4546 50.0372 47.4546 52.0455C47.4546 54.0539 49.0826 55.6819 51.091 55.6819Z" fill="#CCD6DD"/>
<path d="M60.1819 10.2273H32.9092C30.9804 10.2273 29.1305 10.9935 27.7666 12.3574C26.4027 13.7213 25.6365 15.5712 25.6365 17.5V41.1364H67.4547V17.5C67.4547 15.5712 66.6884 13.7213 65.3245 12.3574C63.9606 10.9935 62.1108 10.2273 60.1819 10.2273V10.2273Z" fill="#CCD6DD"/>
</g>
<defs>
<clipPath id="clip0_317_463">
<rect width="65.4545" height="49.9091" fill="white" transform="translate(2 10)"/>
</clipPath>
</defs>
</svg>
