<svg width="91" height="90" viewBox="0 0 91 90" fill="none" xmlns="http://www.w3.org/2000/svg">
<g clip-path="url(#clip0_246_444)">
<path d="M78.5643 54.8364C78.5643 56.7688 77.7917 58.622 76.4164 59.9884C75.0412 61.3547 73.1759 62.1224 71.231 62.1224H19.8977C17.9527 62.1224 16.0875 61.3547 14.7122 59.9884C13.3369 58.622 12.5643 56.7688 12.5643 54.8364V49.3719C12.5643 47.4396 13.3369 45.5863 14.7122 44.22C16.0875 42.8536 17.9527 42.0859 19.8977 42.0859H71.231C73.1759 42.0859 75.0412 42.8536 76.4164 44.22C77.7917 45.5863 78.5643 47.4396 78.5643 49.3719V54.8364Z" fill="#DD2E44"/>
<path d="M47.3977 29.3352L45.6028 27.5137H25.6653C19.8977 27.5137 18.0643 31.1567 18.0643 31.1567L12.5643 42.0109V51.1931H47.3977V29.3352Z" fill="#FFCC4D"/>
<path d="M29.0643 42.0852H16.231L19.8977 34.7992C19.8977 34.7992 21.731 31.1562 25.3977 31.1562H29.0643V42.0852Z" fill="#55ACEE"/>
<path d="M29.0643 69.4079C33.1144 69.4079 36.3977 66.1458 36.3977 62.1219C36.3977 58.098 33.1144 54.8359 29.0643 54.8359C25.0142 54.8359 21.731 58.098 21.731 62.1219C21.731 66.1458 25.0142 69.4079 29.0643 69.4079Z" fill="#292F33"/>
<path d="M29.0643 65.7645C31.0894 65.7645 32.731 64.1335 32.731 62.1215C32.731 60.1095 31.0894 58.4785 29.0643 58.4785C27.0393 58.4785 25.3977 60.1095 25.3977 62.1215C25.3977 64.1335 27.0393 65.7645 29.0643 65.7645Z" fill="#CCD6DD"/>
<path d="M62.0643 69.4079C66.1144 69.4079 69.3977 66.1458 69.3977 62.1219C69.3977 58.098 66.1144 54.8359 62.0643 54.8359C58.0142 54.8359 54.731 58.098 54.731 62.1219C54.731 66.1458 58.0142 69.4079 62.0643 69.4079Z" fill="#292F33"/>
<path d="M62.0643 65.7645C64.0894 65.7645 65.731 64.1335 65.731 62.1215C65.731 60.1095 64.0894 58.4785 62.0643 58.4785C60.0393 58.4785 58.3977 60.1095 58.3977 62.1215C58.3977 64.1335 60.0393 65.7645 62.0643 65.7645Z" fill="#CCD6DD"/>
<path d="M71.231 20.2285H43.731C41.7861 20.2285 39.9208 20.9961 38.5456 22.3625C37.1703 23.7289 36.3977 25.5821 36.3977 27.5145V51.1939H78.5643V27.5145C78.5643 25.5821 77.7917 23.7289 76.4165 22.3625C75.0412 20.9961 73.1759 20.2285 71.231 20.2285V20.2285Z" fill="#CCD6DD"/>
</g>
<defs>
<clipPath id="clip0_246_444">
<rect width="66" height="50" fill="white" transform="translate(12.5643 20)"/>
</clipPath>
</defs>
</svg>
