<svg width="192" height="192" viewBox="0 0 192 192" fill="none" xmlns="http://www.w3.org/2000/svg">
<path d="M0 54.8807L120.685 11.3105V54.8807L0 74.0806V54.8807Z" fill="#F3A242"/>
<path d="M0 85.0534L120.685 65.8535V96.0247L0 109.739V85.0534Z" fill="#F3A242"/>
<path d="M0 120.714L120.685 107.914V139.914L0 145.4V120.714Z" fill="#F3A242"/>
<path d="M0 156.367L120.685 150.881L120.685 181.052H0V156.367Z" fill="#F3A242"/>
<path d="M120.686 11L192 53.0568V74.0853L120.686 54.8854V11Z" fill="#F3FBFF"/>
<path d="M120.686 65.8535L192 85.0534V111.567L120.686 96.0247V65.8535Z" fill="#F3FBFF"/>
<path d="M120.686 107.914L192 122.543V145.4L120.686 139.914V107.914Z" fill="#F3FBFF"/>
<path d="M120.686 150.881L192 156.367V181.052H120.686V150.881Z" fill="#F3FBFF"/>
</svg>
