<svg width="30" height="30" viewBox="0 0 30 30" fill="none" xmlns="http://www.w3.org/2000/svg">
<path d="M7.60897 6.28691L15.0002 13.6782L22.3915 6.28691C22.5692 6.12423 22.8029 6.03642 23.0438 6.04176C23.2847 6.04709 23.5143 6.14517 23.6847 6.31557C23.8551 6.48596 23.9532 6.71552 23.9585 6.95643C23.9638 7.19734 23.876 7.43102 23.7134 7.60879L16.3258 15L23.7152 22.3894C23.8055 22.4754 23.8777 22.5787 23.9275 22.693C23.9773 22.8073 24.0038 22.9304 24.0053 23.0551C24.0068 23.1798 23.9834 23.3036 23.9365 23.4191C23.8895 23.5346 23.8199 23.6396 23.7318 23.7278C23.6437 23.8161 23.5388 23.8858 23.4234 23.933C23.3079 23.9801 23.1842 24.0037 23.0595 24.0023C22.9348 24.0009 22.8116 23.9746 22.6972 23.925C22.5828 23.8753 22.4795 23.8033 22.3933 23.7132L15.0002 16.3238L7.60897 23.715C7.4312 23.8777 7.19752 23.9655 6.95661 23.9602C6.7157 23.9549 6.48614 23.8568 6.31575 23.6864C6.14536 23.516 6.04728 23.2864 6.04194 23.0455C6.03661 22.8046 6.12442 22.5709 6.2871 22.3932L13.6784 15.0019L6.2871 7.60879C6.19682 7.52275 6.12466 7.41954 6.07484 7.30521C6.02503 7.19089 5.99857 7.06776 5.99703 6.94306C5.99548 6.81836 6.01888 6.69462 6.06585 6.57909C6.11282 6.46357 6.1824 6.3586 6.27052 6.27036C6.35864 6.18211 6.46351 6.11238 6.57897 6.06524C6.69443 6.01811 6.81814 5.99454 6.94284 5.99591C7.06754 5.99727 7.19071 6.02356 7.3051 6.07321C7.4195 6.12286 7.52281 6.19488 7.60897 6.28504V6.28691Z" fill="#DFDFDF"/>
</svg>
