<svg width="43" height="38" viewBox="0 0 43 38" fill="none" xmlns="http://www.w3.org/2000/svg">
<path d="M0 9.60617L26.4188 0.0683594V9.60618L0 13.8092V9.60617Z" fill="#F3A242"/>
<path d="M0 16.2108L26.4188 12.0078V18.6125L0 21.6146V16.2108Z" fill="#F3A242"/>
<path d="M0 24.0168L26.4188 21.2148V28.2198L0 29.4207V24.0168Z" fill="#F3A242"/>
<path d="M0 31.8219L26.4188 30.6211L26.4188 37.2258H0V31.8219Z" fill="#F3A242"/>
<path d="M26.4189 0L42.03 9.20654V13.8098L26.4189 9.60683V0Z" fill="#F3FBFF"/>
<path d="M26.4189 12.0078L42.03 16.2108V22.0149L26.4189 18.6125V12.0078Z" fill="#F3FBFF"/>
<path d="M26.4189 21.2148L42.03 24.4171V29.4207L26.4189 28.2198V21.2148Z" fill="#F3FBFF"/>
<path d="M26.4189 30.6211L42.0301 31.822V37.2258H26.4189V30.6211Z" fill="#F3FBFF"/>
</svg>
