<svg width="16" height="16" viewBox="0 0 16 16" fill="none" xmlns="http://www.w3.org/2000/svg">
<path d="M9.12498 15.2996L15.725 8.69957C15.825 8.59957 15.896 8.49124 15.938 8.37457C15.98 8.25791 16.0007 8.13291 16 7.99957C16 7.86624 15.979 7.74124 15.937 7.62457C15.895 7.50791 15.8243 7.39957 15.725 7.29957L9.12498 0.699572C8.94165 0.516239 8.71232 0.420572 8.43698 0.412572C8.16165 0.404572 7.92432 0.500239 7.72499 0.699572C7.52499 0.882905 7.42065 1.11224 7.41198 1.38757C7.40332 1.66291 7.49932 1.90024 7.69998 2.09957L12.6 6.99957H1.42498C1.14165 6.99957 0.903985 7.09557 0.711985 7.28757C0.519984 7.47957 0.424317 7.71691 0.424984 7.99957C0.424984 8.28291 0.520651 8.52057 0.711985 8.71257C0.903318 8.90457 1.14098 9.00024 1.42498 8.99957H12.6L7.69998 13.8996C7.51665 14.0829 7.42065 14.3162 7.41198 14.5996C7.40332 14.8829 7.49932 15.1162 7.69998 15.2996C7.88332 15.4996 8.11665 15.5996 8.39998 15.5996C8.68332 15.5996 8.92498 15.4996 9.12498 15.2996Z" fill="#F2F2F2"/>
</svg>
