<svg width="30" height="30" viewBox="0 0 30 30" fill="none" xmlns="http://www.w3.org/2000/svg">
<path d="M7.60897 6.28685L15.0002 13.6781L22.3915 6.28685C22.5692 6.12417 22.8029 6.03636 23.0438 6.0417C23.2847 6.04703 23.5143 6.14511 23.6847 6.3155C23.8551 6.48589 23.9532 6.71546 23.9585 6.95636C23.9638 7.19727 23.876 7.43095 23.7134 7.60872L16.3259 15L23.7152 22.3893C23.8055 22.4754 23.8777 22.5786 23.9275 22.6929C23.9773 22.8072 24.0038 22.9304 24.0053 23.0551C24.0068 23.1798 23.9834 23.3035 23.9365 23.419C23.8895 23.5346 23.8199 23.6395 23.7318 23.7278C23.6437 23.816 23.5388 23.8858 23.4234 23.9329C23.3079 23.98 23.1842 24.0036 23.0595 24.0022C22.9348 24.0009 22.8116 23.9746 22.6972 23.9249C22.5828 23.8753 22.4795 23.8033 22.3933 23.7131L15.0002 16.3237L7.60897 23.715C7.4312 23.8776 7.19752 23.9655 6.95661 23.9601C6.7157 23.9548 6.48615 23.8567 6.31575 23.6863C6.14536 23.5159 6.04728 23.2864 6.04194 23.0455C6.03661 22.8045 6.12442 22.5709 6.2871 22.3931L13.6784 15.0019L6.2871 7.60872C6.19682 7.52269 6.12466 7.41948 6.07484 7.30515C6.02503 7.19083 5.99857 7.0677 5.99702 6.943C5.99548 6.8183 6.01888 6.69456 6.06585 6.57903C6.11282 6.46351 6.1824 6.35854 6.27052 6.2703C6.35864 6.18205 6.46351 6.11232 6.57897 6.06518C6.69443 6.01805 6.81814 5.99448 6.94284 5.99584C7.06754 5.99721 7.1907 6.02349 7.3051 6.07315C7.4195 6.1228 7.52281 6.19482 7.60897 6.28497V6.28685Z" fill="#606060"/>
</svg>
