<svg width="21" height="15" viewBox="0 0 21 15" fill="none" xmlns="http://www.w3.org/2000/svg">
<path d="M20.5 1.64077V13.3595C20.5 14.0246 19.9594 14.5314 19.25 14.5314H18V3.89605L10.5 8.94683L3 3.89605V14.5314H1.75C1.04063 14.5314 0.5 14.0246 0.5 13.3595V1.64077C0.5 1.30796 0.63375 1.01499 0.858125 0.807569C0.974983 0.697956 1.11416 0.61149 1.26737 0.553309C1.42059 0.495129 1.58471 0.466423 1.75 0.468897H2.16688L10.5 6.13316L18.8331 0.468897H19.25C19.605 0.468897 19.9175 0.594288 20.1419 0.807569C20.3663 1.01499 20.5 1.30796 20.5 1.64077Z" fill="white"/>
</svg>
