<svg width="20" height="20" viewBox="0 0 20 20" fill="none" xmlns="http://www.w3.org/2000/svg">
<g clip-path="url(#clip0_211_521)">
<path d="M17.2115 19.375H17.0889C2.91827 18.5601 0.906252 6.60337 0.625002 2.95433C0.60234 2.67061 0.635884 2.38521 0.72371 2.11448C0.811537 1.84375 0.951921 1.59301 1.13682 1.37662C1.32172 1.16024 1.54749 0.982467 1.80121 0.85349C2.05493 0.724513 2.33161 0.646867 2.61539 0.625001H6.58895C6.87781 0.624721 7.1601 0.711186 7.39926 0.873194C7.63841 1.0352 7.82341 1.26529 7.93029 1.53365L9.02644 4.23077C9.13199 4.49294 9.15818 4.78035 9.10177 5.05728C9.04535 5.33421 8.90882 5.58847 8.70914 5.78846L7.17308 7.33894C7.41302 8.70246 8.066 9.95938 9.04368 10.9396C10.0214 11.9199 11.2765 12.5762 12.6394 12.8197L14.2043 11.2692C14.4073 11.0717 14.664 10.9384 14.9423 10.8858C15.2206 10.8332 15.5082 10.8638 15.7692 10.9736L18.488 12.0625C18.7523 12.1728 18.9778 12.3592 19.1358 12.5981C19.2938 12.837 19.377 13.1175 19.375 13.4038V17.2115C19.375 17.7853 19.1471 18.3356 18.7413 18.7413C18.3356 19.1471 17.7853 19.375 17.2115 19.375ZM2.78846 2.06731C2.5972 2.06731 2.41377 2.14329 2.27853 2.27853C2.14329 2.41377 2.06731 2.5972 2.06731 2.78846V2.84615C2.39904 7.11539 4.52644 17.2115 17.1683 17.9327C17.263 17.9385 17.358 17.9256 17.4477 17.8947C17.5375 17.8638 17.6202 17.8154 17.6912 17.7525C17.7623 17.6895 17.8201 17.6131 17.8616 17.5277C17.903 17.4423 17.9272 17.3496 17.9327 17.2548V13.4038L15.2139 12.3149L13.1442 14.3702L12.7981 14.3269C6.52404 13.5409 5.67308 7.26683 5.67308 7.20192L5.62981 6.85577L7.67789 4.78606L6.59616 2.06731H2.78846Z" fill="white"/>
</g>
<defs>
<clipPath id="clip0_211_521">
<rect width="20" height="20" fill="white"/>
</clipPath>
</defs>
</svg>
